<svg width="24" height="24" viewBox="0 0 24 24" fill="none" xmlns="http://www.w3.org/2000/svg">
<path d="M11 22V13.725C10.7 13.5417 10.4583 13.304 10.275 13.012C10.0917 12.7207 10 12.3833 10 12C10 11.45 10.196 10.979 10.588 10.587C10.9793 10.1957 11.45 10 12 10C12.55 10 13.021 10.1957 13.413 10.587C13.8043 10.979 14 11.45 14 12C14 12.3833 13.9083 12.725 13.725 13.025C13.5417 13.325 13.3 13.5583 13 13.725V22H11ZM5.1 19.25C4.15 18.3333 3.396 17.254 2.838 16.012C2.27933 14.7707 2 13.4333 2 12C2 10.6167 2.26267 9.31667 2.788 8.1C3.31267 6.88333 4.025 5.825 4.925 4.925C5.825 4.025 6.88333 3.31233 8.1 2.787C9.31667 2.26233 10.6167 2 12 2C13.3833 2 14.6833 2.26233 15.9 2.787C17.1167 3.31233 18.175 4.025 19.075 4.925C19.975 5.825 20.6873 6.88333 21.212 8.1C21.7373 9.31667 22 10.6167 22 12C22 13.4333 21.721 14.775 21.163 16.025C20.6043 17.275 19.85 18.35 18.9 19.25L17.5 17.85C18.2667 17.1167 18.875 16.246 19.325 15.238C19.775 14.2293 20 13.15 20 12C20 9.76667 19.225 7.875 17.675 6.325C16.125 4.775 14.2333 4 12 4C9.76667 4 7.875 4.775 6.325 6.325C4.775 7.875 4 9.76667 4 12C4 13.15 4.225 14.225 4.675 15.225C5.125 16.225 5.74167 17.0917 6.525 17.825L5.1 19.25ZM7.925 16.425C7.34167 15.875 6.875 15.2207 6.525 14.462C6.175 13.704 6 12.8833 6 12C6 10.3333 6.58333 8.91667 7.75 7.75C8.91667 6.58333 10.3333 6 12 6C13.6667 6 15.0833 6.58333 16.25 7.75C17.4167 8.91667 18 10.3333 18 12C18 12.8833 17.825 13.7083 17.475 14.475C17.125 15.2417 16.6583 15.8917 16.075 16.425L14.65 15C15.0667 14.6167 15.3957 14.1667 15.637 13.65C15.879 13.1333 16 12.5833 16 12C16 10.9 15.6083 9.95833 14.825 9.175C14.0417 8.39167 13.1 8 12 8C10.9 8 9.95833 8.39167 9.175 9.175C8.39167 9.95833 8 10.9 8 12C8 12.6 8.121 13.154 8.363 13.662C8.60433 14.1707 8.93333 14.6167 9.35 15L7.925 16.425Z" fill="white"/>
</svg>
