<svg width="25" height="24" viewBox="0 0 25 24" fill="none" xmlns="http://www.w3.org/2000/svg">
<path d="M12.5 10.7995C12.8956 10.7995 13.2822 10.6822 13.6111 10.4624C13.94 10.2427 14.1964 9.9303 14.3478 9.56484C14.4991 9.19939 14.5387 8.79726 14.4616 8.4093C14.3844 8.02134 14.1939 7.66497 13.9142 7.38526C13.6345 7.10556 13.2781 6.91508 12.8902 6.83791C12.5022 6.76074 12.1001 6.80034 11.7346 6.95172C11.3692 7.10309 11.0568 7.35944 10.8371 7.68834C10.6173 8.01724 10.5 8.40391 10.5 8.79948C10.5 9.32991 10.7107 9.83862 11.0858 10.2137C11.4609 10.5888 11.9696 10.7995 12.5 10.7995ZM11.79 17.7095C11.883 17.8032 11.9936 17.8776 12.1154 17.9284C12.2373 17.9791 12.368 18.0053 12.5 18.0053C12.632 18.0053 12.7627 17.9791 12.8846 17.9284C13.0064 17.8776 13.117 17.8032 13.21 17.7095L17.3 13.6095C18.25 12.66 18.897 11.4502 19.1593 10.1329C19.4216 8.81571 19.2873 7.45028 18.7735 6.20937C18.2597 4.96845 17.3894 3.90779 16.2727 3.16154C15.156 2.41528 13.8431 2.01697 12.5 2.01697C11.1569 2.01697 9.844 2.41528 8.72731 3.16154C7.61062 3.90779 6.74033 4.96845 6.22652 6.20937C5.7127 7.45028 5.57845 8.81571 5.84073 10.1329C6.10301 11.4502 6.75005 12.66 7.7 13.6095L11.79 17.7095ZM7.73 8.33948C7.79833 7.62649 8.02502 6.93777 8.39352 6.32359C8.76203 5.70941 9.26305 5.18529 9.86 4.78948C10.6442 4.27458 11.5619 4.00024 12.5 4.00024C13.4381 4.00024 14.3558 4.27458 15.14 4.78948C15.733 5.18393 16.2311 5.70488 16.5987 6.31486C16.9663 6.92485 17.1942 7.60871 17.2659 8.31726C17.3376 9.02582 17.2514 9.74147 17.0135 10.4127C16.7756 11.084 16.3919 11.6942 15.89 12.1995L12.5 15.5895L9.11 12.1995C8.60752 11.6991 8.22293 11.093 7.98421 10.4253C7.74548 9.75755 7.65864 9.045 7.73 8.33948ZM19.5 19.9995H5.5C5.23478 19.9995 4.98043 20.1048 4.79289 20.2924C4.60536 20.4799 4.5 20.7343 4.5 20.9995C4.5 21.2647 4.60536 21.519 4.79289 21.7066C4.98043 21.8941 5.23478 21.9995 5.5 21.9995H19.5C19.7652 21.9995 20.0196 21.8941 20.2071 21.7066C20.3946 21.519 20.5 21.2647 20.5 20.9995C20.5 20.7343 20.3946 20.4799 20.2071 20.2924C20.0196 20.1048 19.7652 19.9995 19.5 19.9995Z" fill="white"/>
</svg>
