<svg width="25" height="24" viewBox="0 0 25 24" fill="none" xmlns="http://www.w3.org/2000/svg">
<path d="M17.2101 16.2895L4.2101 3.28945C4.0218 3.10115 3.76641 2.99536 3.5001 2.99536C3.2338 2.99536 2.97841 3.10115 2.7901 3.28945C2.6018 3.47776 2.49601 3.73315 2.49601 3.99945C2.49601 4.26575 2.6018 4.52115 2.7901 4.70945L6.1501 8.05945C5.85469 8.69292 5.65581 9.36707 5.5601 10.0595C4.53449 10.2161 3.60987 10.7651 2.98142 11.5906C2.35296 12.4162 2.06984 13.4535 2.19182 14.4839C2.31379 15.5142 2.83132 16.4568 3.63516 17.1127C4.43901 17.7687 5.46626 18.0866 6.5001 17.9995H16.0901L18.7901 20.7095C18.8831 20.8032 18.9937 20.8776 19.1155 20.9283C19.2374 20.9791 19.3681 21.0053 19.5001 21.0053C19.6321 21.0053 19.7628 20.9791 19.8847 20.9283C20.0065 20.8776 20.1171 20.8032 20.2101 20.7095C20.3038 20.6165 20.3782 20.5059 20.429 20.384C20.4798 20.2622 20.5059 20.1315 20.5059 19.9995C20.5059 19.8674 20.4798 19.7367 20.429 19.6149C20.3782 19.493 20.3038 19.3824 20.2101 19.2895L17.2101 16.2895ZM6.5001 15.9995C5.96967 15.9995 5.46096 15.7887 5.08589 15.4137C4.71082 15.0386 4.5001 14.5299 4.5001 13.9995C4.5001 13.469 4.71082 12.9603 5.08589 12.5852C5.46096 12.2102 5.96967 11.9995 6.5001 11.9995C6.76532 11.9995 7.01967 11.8941 7.20721 11.7066C7.39475 11.519 7.5001 11.2647 7.5001 10.9995C7.50105 10.529 7.56838 10.0611 7.7001 9.60945L14.0901 15.9995H6.5001ZM18.9201 8.21945C18.378 6.9667 17.4814 5.89977 16.3408 5.14999C15.2001 4.40021 13.8651 4.00029 12.5001 3.99945C11.7093 3.99565 10.924 4.13105 10.1801 4.39945C9.95207 4.50247 9.77095 4.68724 9.67249 4.91728C9.57403 5.14732 9.56539 5.40591 9.64827 5.64201C9.73116 5.87811 9.89955 6.07455 10.1202 6.19257C10.3408 6.31058 10.5977 6.34158 10.8401 6.27945C11.3732 6.09125 11.9348 5.99652 12.5001 5.99945C13.5437 6.00022 14.5609 6.32751 15.4091 6.93543C16.2573 7.54336 16.8941 8.40145 17.2301 9.38945C17.2873 9.56129 17.39 9.71438 17.5274 9.83239C17.6648 9.95039 17.8316 10.0289 18.0101 10.0595C18.5186 10.1494 18.9953 10.3691 19.394 10.6973C19.7927 11.0255 20.0999 11.451 20.286 11.9327C20.472 12.4144 20.5306 12.936 20.456 13.447C20.3814 13.958 20.1761 14.441 19.8601 14.8495C19.6966 15.0567 19.6217 15.3202 19.6516 15.5824C19.6816 15.8447 19.8141 16.0845 20.0201 16.2495C20.196 16.3906 20.4145 16.4681 20.6401 16.4695C20.7903 16.4688 20.9384 16.4342 21.0735 16.3685C21.2085 16.3027 21.327 16.2073 21.4201 16.0895C21.9215 15.4487 22.2589 14.6952 22.4031 13.8945C22.5473 13.0938 22.494 12.2699 22.2476 11.4945C22.0013 10.7191 21.5695 10.0155 20.9896 9.44473C20.4097 8.87401 19.6994 8.45342 18.9201 8.21945Z" fill="white"/>
</svg>
