<svg width="24" height="25" viewBox="0 0 24 25" fill="none" xmlns="http://www.w3.org/2000/svg">
<path d="M14 12.2355H16.42C16.5516 12.2363 16.6821 12.2111 16.8039 12.1613C16.9257 12.1115 17.0366 12.0382 17.13 11.9455L21.71 7.36553C21.8037 7.27257 21.8781 7.16197 21.9289 7.04011C21.9797 6.91825 22.0058 6.78755 22.0058 6.65553C22.0058 6.52352 21.9797 6.39282 21.9289 6.27096C21.8781 6.1491 21.8037 6.0385 21.71 5.94553L19.29 3.52553C19.197 3.43181 19.0864 3.35741 18.9646 3.30664C18.8427 3.25587 18.712 3.22974 18.58 3.22974C18.448 3.22974 18.3173 3.25587 18.1954 3.30664C18.0736 3.35741 17.963 3.43181 17.87 3.52553L13.29 8.10553C13.1073 8.29717 13.0037 8.55077 13 8.81553V11.2355C13 11.5008 13.1054 11.7551 13.2929 11.9426C13.4804 12.1302 13.7348 12.2355 14 12.2355ZM15 9.23553L18.58 5.65553L19.58 6.65553L16 10.2355H15V9.23553ZM21 11.2355C20.7348 11.2355 20.4804 11.3409 20.2929 11.5284C20.1054 11.716 20 11.9703 20 12.2355V19.2355C20 19.5008 19.8946 19.7551 19.7071 19.9426C19.5196 20.1302 19.2652 20.2355 19 20.2355H5C4.73478 20.2355 4.48043 20.1302 4.29289 19.9426C4.10536 19.7551 4 19.5008 4 19.2355V9.62553L9.88 15.5155C10.1591 15.7982 10.4915 16.0227 10.858 16.1759C11.2245 16.3291 11.6178 16.408 12.015 16.408C12.4122 16.408 12.8055 16.3291 13.172 16.1759C13.5385 16.0227 13.8709 15.7982 14.15 15.5155C14.3332 15.3286 14.4359 15.0773 14.4359 14.8155C14.4359 14.5538 14.3332 14.3025 14.15 14.1155C14.0569 14.0203 13.9456 13.9446 13.8229 13.8929C13.7001 13.8413 13.5682 13.8147 13.435 13.8147C13.3018 13.8147 13.1699 13.8413 13.0471 13.8929C12.9244 13.9446 12.8131 14.0203 12.72 14.1155C12.5331 14.2988 12.2818 14.4014 12.02 14.4014C11.7582 14.4014 11.5069 14.2988 11.32 14.1155L5.41 8.21553H10C10.2652 8.21553 10.5196 8.11018 10.7071 7.92264C10.8946 7.73511 11 7.48075 11 7.21553C11 6.95032 10.8946 6.69596 10.7071 6.50843C10.5196 6.32089 10.2652 6.21553 10 6.21553H5C4.20435 6.21553 3.44129 6.53161 2.87868 7.09421C2.31607 7.65682 2 8.41988 2 9.21553V19.2155C2 20.0112 2.31607 20.7742 2.87868 21.3369C3.44129 21.8995 4.20435 22.2155 5 22.2155H19C19.7956 22.2155 20.5587 21.8995 21.1213 21.3369C21.6839 20.7742 22 20.0112 22 19.2155V12.2155C22 11.9503 21.8946 11.696 21.7071 11.5084C21.5196 11.3209 21.2652 11.2155 21 11.2155V11.2355Z" fill="black"/>
</svg>
