<svg width="25" height="25" viewBox="0 0 25 25" fill="none" xmlns="http://www.w3.org/2000/svg">
<path d="M12.8 12.9456C13.3336 12.4837 13.7616 11.9125 14.0549 11.2706C14.3482 10.6287 14.5 9.93129 14.5 9.22559C14.5 7.8995 13.9732 6.62773 13.0355 5.69005C12.0979 4.75237 10.8261 4.22559 9.5 4.22559C8.17392 4.22559 6.90215 4.75237 5.96447 5.69005C5.02678 6.62773 4.5 7.8995 4.5 9.22559C4.49999 9.93129 4.6518 10.6287 4.94513 11.2706C5.23845 11.9125 5.66642 12.4837 6.2 12.9456C4.80014 13.5795 3.61247 14.6031 2.77898 15.8941C1.9455 17.1851 1.50147 18.6889 1.5 20.2256C1.5 20.4908 1.60536 20.7452 1.79289 20.9327C1.98043 21.1202 2.23478 21.2256 2.5 21.2256C2.76522 21.2256 3.01957 21.1202 3.20711 20.9327C3.39464 20.7452 3.5 20.4908 3.5 20.2256C3.5 18.6343 4.13214 17.1082 5.25736 15.9829C6.38258 14.8577 7.9087 14.2256 9.5 14.2256C11.0913 14.2256 12.6174 14.8577 13.7426 15.9829C14.8679 17.1082 15.5 18.6343 15.5 20.2256C15.5 20.4908 15.6054 20.7452 15.7929 20.9327C15.9804 21.1202 16.2348 21.2256 16.5 21.2256C16.7652 21.2256 17.0196 21.1202 17.2071 20.9327C17.3946 20.7452 17.5 20.4908 17.5 20.2256C17.4985 18.6889 17.0545 17.1851 16.221 15.8941C15.3875 14.6031 14.1999 13.5795 12.8 12.9456ZM9.5 12.2256C8.90666 12.2256 8.32664 12.0496 7.83329 11.72C7.33994 11.3904 6.95542 10.9218 6.72836 10.3736C6.5013 9.82546 6.44189 9.22226 6.55764 8.64032C6.6734 8.05837 6.95912 7.52382 7.37868 7.10427C7.79824 6.68471 8.33279 6.39899 8.91473 6.28323C9.49667 6.16747 10.0999 6.22688 10.6481 6.45395C11.1962 6.68101 11.6648 7.06553 11.9944 7.55888C12.3241 8.05222 12.5 8.63224 12.5 9.22559C12.5 10.0212 12.1839 10.7843 11.6213 11.3469C11.0587 11.9095 10.2956 12.2256 9.5 12.2256ZM19.24 12.5456C19.88 11.8249 20.298 10.9346 20.4438 9.98193C20.5896 9.02921 20.4569 8.05466 20.0618 7.17559C19.6666 6.29651 19.0258 5.55038 18.2165 5.02701C17.4071 4.50364 16.4638 4.22533 15.5 4.22559C15.2348 4.22559 14.9804 4.33094 14.7929 4.51848C14.6054 4.70602 14.5 4.96037 14.5 5.22559C14.5 5.4908 14.6054 5.74516 14.7929 5.93269C14.9804 6.12023 15.2348 6.22559 15.5 6.22559C16.2956 6.22559 17.0587 6.54166 17.6213 7.10427C18.1839 7.66688 18.5 8.42994 18.5 9.22559C18.4986 9.75083 18.3593 10.2665 18.0961 10.721C17.8328 11.1755 17.4549 11.553 17 11.8156C16.8517 11.9011 16.7279 12.0233 16.6404 12.1703C16.5528 12.3174 16.5045 12.4845 16.5 12.6556C16.4958 12.8253 16.5349 12.9934 16.6137 13.1438C16.6924 13.2943 16.8081 13.4222 16.95 13.5156L17.34 13.7756L17.47 13.8456C18.6754 14.4173 19.6923 15.3216 20.401 16.4519C21.1096 17.5822 21.4805 18.8915 21.47 20.2256C21.47 20.4908 21.5754 20.7452 21.7629 20.9327C21.9504 21.1202 22.2048 21.2256 22.47 21.2256C22.7352 21.2256 22.9896 21.1202 23.1771 20.9327C23.3646 20.7452 23.47 20.4908 23.47 20.2256C23.4782 18.691 23.0938 17.1798 22.3535 15.8356C21.6131 14.4915 20.5413 13.3589 19.24 12.5456Z" fill="white"/>
</svg>
