<svg width="20" height="21" viewBox="0 0 20 21" fill="none" xmlns="http://www.w3.org/2000/svg">
<path d="M14.1666 8H5.83322C5.61221 8 5.40025 8.0878 5.24397 8.24408C5.08769 8.40036 4.99989 8.61232 4.99989 8.83334C4.99989 9.05435 5.08769 9.26631 5.24397 9.42259C5.40025 9.57887 5.61221 9.66667 5.83322 9.66667H14.1666C14.3876 9.66667 14.5995 9.57887 14.7558 9.42259C14.9121 9.26631 14.9999 9.05435 14.9999 8.83334C14.9999 8.61232 14.9121 8.40036 14.7558 8.24408C14.5995 8.0878 14.3876 8 14.1666 8ZM10.8332 11.3333H5.83322C5.61221 11.3333 5.40025 11.4211 5.24397 11.5774C5.08769 11.7337 4.99989 11.9457 4.99989 12.1667C4.99989 12.3877 5.08769 12.5996 5.24397 12.7559C5.40025 12.9122 5.61221 13 5.83322 13H10.8332C11.0542 13 11.2662 12.9122 11.4225 12.7559C11.5788 12.5996 11.6666 12.3877 11.6666 12.1667C11.6666 11.9457 11.5788 11.7337 11.4225 11.5774C11.2662 11.4211 11.0542 11.3333 10.8332 11.3333ZM9.99989 2.16667C8.90554 2.16667 7.82191 2.38222 6.81086 2.80101C5.79981 3.2198 4.88115 3.83363 4.10733 4.60745C2.54453 6.17025 1.66656 8.28987 1.66656 10.5C1.65927 12.4243 2.32555 14.2905 3.54989 15.775L1.88322 17.4417C1.76759 17.5589 1.68926 17.7077 1.65812 17.8693C1.62697 18.031 1.64441 18.1982 1.70822 18.35C1.77744 18.4999 1.88964 18.6259 2.03059 18.712C2.17155 18.798 2.33489 18.8403 2.49989 18.8333H9.99989C12.21 18.8333 14.3296 17.9554 15.8924 16.3926C17.4553 14.8298 18.3332 12.7101 18.3332 10.5C18.3332 8.28987 17.4553 6.17025 15.8924 4.60745C14.3296 3.04465 12.21 2.16667 9.99989 2.16667ZM9.99989 17.1667H4.50822L5.28322 16.3917C5.43843 16.2355 5.52555 16.0243 5.52555 15.8042C5.52555 15.584 5.43843 15.3728 5.28322 15.2167C4.19204 14.1267 3.51253 12.6921 3.36046 11.1573C3.2084 9.62255 3.59317 8.08251 4.44924 6.79961C5.30532 5.5167 6.57972 4.5703 8.05532 4.12165C9.53092 3.67299 11.1164 3.74984 12.5417 4.3391C13.967 4.92836 15.1439 5.99357 15.8719 7.35325C16.5999 8.71293 16.834 10.283 16.5342 11.7958C16.2344 13.3087 15.4193 14.6709 14.2278 15.6502C13.0364 16.6295 11.5422 17.1655 9.99989 17.1667Z" fill="black"/>
</svg>
