<svg width="21" height="20" viewBox="0 0 21 20" fill="none" xmlns="http://www.w3.org/2000/svg">
<path d="M7.16668 9.16663H13.8333C13.9564 9.16582 14.0778 9.13775 14.1888 9.08444C14.2997 9.03112 14.3975 8.95389 14.475 8.8583C14.5565 8.76458 14.616 8.65383 14.6491 8.53416C14.6823 8.41449 14.6883 8.28892 14.6667 8.16663L13.8333 3.99997C13.7944 3.8089 13.6897 3.63755 13.5374 3.51574C13.3851 3.39393 13.195 3.32937 13 3.3333H8.00001C7.80506 3.32937 7.6149 3.39393 7.46263 3.51574C7.31037 3.63755 7.20564 3.8089 7.16668 3.99997L6.33335 8.16663C6.30949 8.28769 6.31282 8.41253 6.34308 8.53214C6.37335 8.65176 6.42979 8.76316 6.50835 8.8583C6.58766 8.95609 6.6881 9.03464 6.80212 9.08804C6.91614 9.14144 7.04078 9.16831 7.16668 9.16663ZM8.68335 4.99997H12.3167L12.8167 7.49997H8.18335L8.68335 4.99997ZM18.8333 11.5C18.7944 11.3089 18.6897 11.1376 18.5374 11.0157C18.3851 10.8939 18.195 10.8294 18 10.8333H13C12.8051 10.8294 12.6149 10.8939 12.4626 11.0157C12.3104 11.1376 12.2056 11.3089 12.1667 11.5L11.3333 15.6666C11.3095 15.7877 11.3128 15.9125 11.3431 16.0321C11.3733 16.1518 11.4298 16.2632 11.5083 16.3583C11.5877 16.4561 11.6881 16.5346 11.8021 16.588C11.9161 16.6414 12.0408 16.6683 12.1667 16.6666H18.8333C18.9564 16.6658 19.0778 16.6377 19.1888 16.5844C19.2997 16.5311 19.3975 16.4539 19.475 16.3583C19.5565 16.2646 19.616 16.1538 19.6491 16.0342C19.6823 15.9145 19.6883 15.7889 19.6667 15.6666L18.8333 11.5ZM13.1833 15L13.6833 12.5H17.3167L17.8167 15H13.1833ZM8.00001 10.8333H3.00001C2.80506 10.8294 2.6149 10.8939 2.46263 11.0157C2.31037 11.1376 2.20564 11.3089 2.16668 11.5L1.33335 15.6666C1.3095 15.7877 1.31282 15.9125 1.34308 16.0321C1.37335 16.1518 1.42979 16.2632 1.50835 16.3583C1.58766 16.4561 1.6881 16.5346 1.80212 16.588C1.91614 16.6414 2.04078 16.6683 2.16668 16.6666H8.83335C8.95644 16.6658 9.07782 16.6377 9.18876 16.5844C9.29971 16.5311 9.39747 16.4539 9.47501 16.3583C9.55648 16.2646 9.61597 16.1538 9.64913 16.0342C9.68229 15.9145 9.68829 15.7889 9.66668 15.6666L8.83335 11.5C8.79439 11.3089 8.68966 11.1376 8.5374 11.0157C8.38513 10.8939 8.19497 10.8294 8.00001 10.8333ZM3.18335 15L3.68335 12.5H7.31668L7.81668 15H3.18335Z" fill="black"/>
</svg>
