<svg width="31" height="31" viewBox="0 0 31 31" fill="none" xmlns="http://www.w3.org/2000/svg">
<path d="M19.0375 21.75C19.2703 21.5158 19.401 21.199 19.401 20.8687C19.401 20.5385 19.2703 20.2217 19.0375 19.9875L14.6125 15.5L19.0375 11.075C19.2703 10.8408 19.401 10.524 19.401 10.1937C19.401 9.86351 19.2703 9.5467 19.0375 9.3125C18.9213 9.19534 18.7831 9.10234 18.6307 9.03888C18.4784 8.97542 18.315 8.94275 18.15 8.94275C17.985 8.94275 17.8216 8.97542 17.6693 9.03888C17.517 9.10234 17.3787 9.19534 17.2625 9.3125L11.9625 14.6125C11.8453 14.7287 11.7524 14.867 11.6889 15.0193C11.6254 15.1716 11.5928 15.335 11.5928 15.5C11.5928 15.665 11.6254 15.8284 11.6889 15.9807C11.7524 16.133 11.8453 16.2713 11.9625 16.3875L17.2625 21.75C17.3787 21.8672 17.517 21.9601 17.6693 22.0236C17.8216 22.0871 17.985 22.1197 18.15 22.1197C18.315 22.1197 18.4784 22.0871 18.6307 22.0236C18.7831 21.9601 18.9213 21.8672 19.0375 21.75Z" fill="black"/>
</svg>
