<svg width="20" height="21" viewBox="0 0 20 21" fill="none" xmlns="http://www.w3.org/2000/svg">
<path d="M10.8334 12.1667H7.50004C7.27903 12.1667 7.06707 12.2545 6.91078 12.4107C6.7545 12.567 6.66671 12.779 6.66671 13C6.66671 13.221 6.7545 13.433 6.91078 13.5893C7.06707 13.7455 7.27903 13.8333 7.50004 13.8333H10.8334C11.0544 13.8333 11.2663 13.7455 11.4226 13.5893C11.5789 13.433 11.6667 13.221 11.6667 13C11.6667 12.779 11.5789 12.567 11.4226 12.4107C11.2663 12.2545 11.0544 12.1667 10.8334 12.1667ZM14.1667 3.83333H13.1834C13.0114 3.34704 12.6933 2.92583 12.2726 2.62745C11.8519 2.32907 11.3492 2.16812 10.8334 2.16667H9.16671C8.65092 2.16812 8.14821 2.32907 7.72749 2.62745C7.30677 2.92583 6.98863 3.34704 6.81671 3.83333H5.83337C5.17033 3.83333 4.53445 4.09673 4.06561 4.56557C3.59677 5.03441 3.33337 5.67029 3.33337 6.33333V16.3333C3.33337 16.9964 3.59677 17.6323 4.06561 18.1011C4.53445 18.5699 5.17033 18.8333 5.83337 18.8333H14.1667C14.8297 18.8333 15.4656 18.5699 15.9345 18.1011C16.4033 17.6323 16.6667 16.9964 16.6667 16.3333V6.33333C16.6667 5.67029 16.4033 5.03441 15.9345 4.56557C15.4656 4.09673 14.8297 3.83333 14.1667 3.83333ZM8.33337 4.66667C8.33337 4.44565 8.42117 4.23369 8.57745 4.07741C8.73373 3.92113 8.94569 3.83333 9.16671 3.83333H10.8334C11.0544 3.83333 11.2663 3.92113 11.4226 4.07741C11.5789 4.23369 11.6667 4.44565 11.6667 4.66667V5.5H8.33337V4.66667ZM15 16.3333C15 16.5543 14.9122 16.7663 14.756 16.9226C14.5997 17.0789 14.3877 17.1667 14.1667 17.1667H5.83337C5.61236 17.1667 5.4004 17.0789 5.24412 16.9226C5.08784 16.7663 5.00004 16.5543 5.00004 16.3333V6.33333C5.00004 6.11232 5.08784 5.90036 5.24412 5.74408C5.4004 5.5878 5.61236 5.5 5.83337 5.5H6.66671V6.33333C6.66671 6.55435 6.7545 6.76631 6.91078 6.92259C7.06707 7.07887 7.27903 7.16667 7.50004 7.16667H12.5C12.7211 7.16667 12.933 7.07887 13.0893 6.92259C13.2456 6.76631 13.3334 6.55435 13.3334 6.33333V5.5H14.1667C14.3877 5.5 14.5997 5.5878 14.756 5.74408C14.9122 5.90036 15 6.11232 15 6.33333V16.3333ZM12.5 8.83333H7.50004C7.27903 8.83333 7.06707 8.92113 6.91078 9.07741C6.7545 9.23369 6.66671 9.44565 6.66671 9.66667C6.66671 9.88768 6.7545 10.0996 6.91078 10.2559C7.06707 10.4122 7.27903 10.5 7.50004 10.5H12.5C12.7211 10.5 12.933 10.4122 13.0893 10.2559C13.2456 10.0996 13.3334 9.88768 13.3334 9.66667C13.3334 9.44565 13.2456 9.23369 13.0893 9.07741C12.933 8.92113 12.7211 8.83333 12.5 8.83333Z" fill="black"/>
</svg>
