<svg width="25" height="24" viewBox="0 0 25 24" fill="none" xmlns="http://www.w3.org/2000/svg">
<path d="M13.21 16.2895L13.06 16.1695C13.0043 16.1317 12.9437 16.1014 12.88 16.0795L12.7 15.9995C12.5378 15.9656 12.3698 15.9725 12.2109 16.0197C12.0521 16.0668 11.9074 16.1526 11.79 16.2695C11.7017 16.3667 11.6306 16.4783 11.58 16.5995C11.5043 16.7817 11.4842 16.9822 11.5223 17.1758C11.5603 17.3694 11.6547 17.5474 11.7937 17.6875C11.9327 17.8275 12.11 17.9233 12.3033 17.9628C12.4966 18.0023 12.6972 17.9838 12.88 17.9095C12.9995 17.8515 13.1105 17.7775 13.21 17.6895C13.3488 17.5489 13.4428 17.3703 13.4801 17.1763C13.5175 16.9823 13.4966 16.7816 13.42 16.5995C13.3701 16.4839 13.2989 16.3787 13.21 16.2895ZM16.5 1.99951H8.5C7.70435 1.99951 6.94129 2.31558 6.37868 2.87819C5.81607 3.4408 5.5 4.20386 5.5 4.99951V18.9995C5.5 19.7952 5.81607 20.5582 6.37868 21.1208C6.94129 21.6834 7.70435 21.9995 8.5 21.9995H16.5C17.2956 21.9995 18.0587 21.6834 18.6213 21.1208C19.1839 20.5582 19.5 19.7952 19.5 18.9995V4.99951C19.5 4.20386 19.1839 3.4408 18.6213 2.87819C18.0587 2.31558 17.2956 1.99951 16.5 1.99951ZM17.5 18.9995C17.5 19.2647 17.3946 19.5191 17.2071 19.7066C17.0196 19.8942 16.7652 19.9995 16.5 19.9995H8.5C8.23478 19.9995 7.98043 19.8942 7.79289 19.7066C7.60536 19.5191 7.5 19.2647 7.5 18.9995V4.99951C7.5 4.7343 7.60536 4.47994 7.79289 4.29241C7.98043 4.10487 8.23478 3.99951 8.5 3.99951H16.5C16.7652 3.99951 17.0196 4.10487 17.2071 4.29241C17.3946 4.47994 17.5 4.7343 17.5 4.99951V18.9995Z" fill="white"/>
</svg>
