<svg width="20" height="21" viewBox="0 0 20 21" fill="none" xmlns="http://www.w3.org/2000/svg">
<path d="M9.99996 2.16667C8.35179 2.16667 6.74062 2.65541 5.37021 3.57109C3.9998 4.48676 2.9317 5.78825 2.30097 7.31097C1.67024 8.83369 1.50521 10.5092 1.82675 12.1258C2.1483 13.7423 2.94197 15.2271 4.10741 16.3926C5.27284 17.558 6.7577 18.3517 8.37421 18.6732C9.99072 18.9948 11.6663 18.8297 13.189 18.199C14.7117 17.5683 16.0132 16.5002 16.9289 15.1298C17.8446 13.7593 18.3333 12.1482 18.3333 10.5C18.3333 9.40565 18.1177 8.32202 17.699 7.31097C17.2802 6.29992 16.6663 5.38126 15.8925 4.60744C15.1187 3.83362 14.2 3.21979 13.189 2.801C12.1779 2.38221 11.0943 2.16667 9.99996 2.16667ZM9.99996 17.1667C8.68142 17.1667 7.39249 16.7757 6.29616 16.0431C5.19983 15.3106 4.34535 14.2694 3.84077 13.0512C3.33618 11.833 3.20416 10.4926 3.46139 9.1994C3.71863 7.90619 4.35357 6.7183 5.28592 5.78595C6.21827 4.8536 7.40615 4.21867 8.69936 3.96143C9.99257 3.7042 11.333 3.83622 12.5512 4.3408C13.7694 4.84539 14.8105 5.69987 15.5431 6.7962C16.2756 7.89252 16.6666 9.18146 16.6666 10.5C16.6666 12.2681 15.9642 13.9638 14.714 15.214C13.4638 16.4643 11.7681 17.1667 9.99996 17.1667ZM13.3333 9.66667H10.8333V7.16667C10.8333 6.94565 10.7455 6.73369 10.5892 6.57741C10.4329 6.42113 10.221 6.33333 9.99996 6.33333C9.77895 6.33333 9.56699 6.42113 9.41071 6.57741C9.25443 6.73369 9.16663 6.94565 9.16663 7.16667V9.66667H6.66663C6.44562 9.66667 6.23365 9.75446 6.07737 9.91074C5.92109 10.067 5.8333 10.279 5.8333 10.5C5.8333 10.721 5.92109 10.933 6.07737 11.0893C6.23365 11.2455 6.44562 11.3333 6.66663 11.3333H9.16663V13.8333C9.16663 14.0543 9.25443 14.2663 9.41071 14.4226C9.56699 14.5789 9.77895 14.6667 9.99996 14.6667C10.221 14.6667 10.4329 14.5789 10.5892 14.4226C10.7455 14.2663 10.8333 14.0543 10.8333 13.8333V11.3333H13.3333C13.5543 11.3333 13.7663 11.2455 13.9226 11.0893C14.0788 10.933 14.1666 10.721 14.1666 10.5C14.1666 10.279 14.0788 10.067 13.9226 9.91074C13.7663 9.75446 13.5543 9.66667 13.3333 9.66667Z" fill="#0B0B0B"/>
</svg>
