<svg width="20" height="21" viewBox="0 0 20 21" fill="none" xmlns="http://www.w3.org/2000/svg">
<g id="brick wall,partition,brick partition,construction,wall, / 24 / Outline">
<path id="Vector" d="M17.5001 8C17.7211 8 17.9331 7.9122 18.0893 7.75592C18.2456 7.59964 18.3334 7.38768 18.3334 7.16667C18.3334 6.94565 18.2456 6.73369 18.0893 6.57741C17.9331 6.42113 17.7211 6.33333 17.5001 6.33333H16.6667V4.66667H17.5001C17.7211 4.66667 17.9331 4.57887 18.0893 4.42259C18.2456 4.26631 18.3334 4.05435 18.3334 3.83333C18.3334 3.61232 18.2456 3.40036 18.0893 3.24408C17.9331 3.0878 17.7211 3 17.5001 3H2.50008C2.27907 3 2.06711 3.0878 1.91083 3.24408C1.75455 3.40036 1.66675 3.61232 1.66675 3.83333C1.66675 4.05435 1.75455 4.26631 1.91083 4.42259C2.06711 4.57887 2.27907 4.66667 2.50008 4.66667H5.00008V6.33333H2.50008C2.27907 6.33333 2.06711 6.42113 1.91083 6.57741C1.75455 6.73369 1.66675 6.94565 1.66675 7.16667C1.66675 7.38768 1.75455 7.59964 1.91083 7.75592C2.06711 7.9122 2.27907 8 2.50008 8H3.33341V9.66667H2.50008C2.27907 9.66667 2.06711 9.75446 1.91083 9.91074C1.75455 10.067 1.66675 10.279 1.66675 10.5C1.66675 10.721 1.75455 10.933 1.91083 11.0893C2.06711 11.2455 2.27907 11.3333 2.50008 11.3333H5.00008V13H2.50008C2.27907 13 2.06711 13.0878 1.91083 13.2441C1.75455 13.4004 1.66675 13.6123 1.66675 13.8333C1.66675 14.0543 1.75455 14.2663 1.91083 14.4226C2.06711 14.5789 2.27907 14.6667 2.50008 14.6667H3.33341V16.3333H2.50008C2.27907 16.3333 2.06711 16.4211 1.91083 16.5774C1.75455 16.7337 1.66675 16.9457 1.66675 17.1667C1.66675 17.3877 1.75455 17.5996 1.91083 17.7559C2.06711 17.9122 2.27907 18 2.50008 18H17.5001C17.7211 18 17.9331 17.9122 18.0893 17.7559C18.2456 17.5996 18.3334 17.3877 18.3334 17.1667C18.3334 16.9457 18.2456 16.7337 18.0893 16.5774C17.9331 16.4211 17.7211 16.3333 17.5001 16.3333H15.0001V14.6667H17.5001C17.7211 14.6667 17.9331 14.5789 18.0893 14.4226C18.2456 14.2663 18.3334 14.0543 18.3334 13.8333C18.3334 13.6123 18.2456 13.4004 18.0893 13.2441C17.9331 13.0878 17.7211 13 17.5001 13H16.6667V11.3333H17.5001C17.7211 11.3333 17.9331 11.2455 18.0893 11.0893C18.2456 10.933 18.3334 10.721 18.3334 10.5C18.3334 10.279 18.2456 10.067 18.0893 9.91074C17.9331 9.75446 17.7211 9.66667 17.5001 9.66667H15.0001V8H17.5001ZM6.66675 4.66667H10.0001V6.33333H6.66675V4.66667ZM13.3334 8V9.66667H10.0001V8H13.3334ZM5.00008 8H8.33341V9.66667H5.00008V8ZM10.0001 11.3333V13H6.66675V11.3333H10.0001ZM8.33341 16.3333H5.00008V14.6667H8.33341V16.3333ZM13.3334 16.3333H10.0001V14.6667H13.3334V16.3333ZM15.0001 13H11.6667V11.3333H15.0001V13ZM11.6667 6.33333V4.66667H15.0001V6.33333H11.6667Z" fill="#0B0B0B"/>
</g>
</svg>
