<svg width="24" height="25" viewBox="0 0 24 25" fill="none" xmlns="http://www.w3.org/2000/svg">
<path d="M19 4.72559H5C4.20435 4.72559 3.44129 5.04166 2.87868 5.60427C2.31607 6.16687 2 6.92994 2 7.72559V17.7256C2 18.5212 2.31607 19.2843 2.87868 19.8469C3.44129 20.4095 4.20435 20.7256 5 20.7256H19C19.7956 20.7256 20.5587 20.4095 21.1213 19.8469C21.6839 19.2843 22 18.5212 22 17.7256V7.72559C22 6.92994 21.6839 6.16687 21.1213 5.60427C20.5587 5.04166 19.7956 4.72559 19 4.72559ZM18.59 6.72559L12.71 12.6056C12.617 12.6993 12.5064 12.7737 12.3846 12.8245C12.2627 12.8752 12.132 12.9014 12 12.9014C11.868 12.9014 11.7373 12.8752 11.6154 12.8245C11.4936 12.7737 11.383 12.6993 11.29 12.6056L5.41 6.72559H18.59ZM20 17.7256C20 17.9908 19.8946 18.2452 19.7071 18.4327C19.5196 18.6202 19.2652 18.7256 19 18.7256H5C4.73478 18.7256 4.48043 18.6202 4.29289 18.4327C4.10536 18.2452 4 17.9908 4 17.7256V8.13559L9.88 14.0156C10.4425 14.5774 11.205 14.8929 12 14.8929C12.795 14.8929 13.5575 14.5774 14.12 14.0156L20 8.13559V17.7256Z" fill="#0B0B0B"/>
</svg>
