<svg width="24" height="24" viewBox="0 0 24 24" fill="none" xmlns="http://www.w3.org/2000/svg">
<path d="M9.16994 7.00001C8.98369 7.18737 8.87915 7.44082 8.87915 7.70501C8.87915 7.96919 8.98369 8.22264 9.16994 8.41001L12.7099 12L9.16994 15.54C8.98369 15.7274 8.87915 15.9808 8.87915 16.245C8.87915 16.5092 8.98369 16.7626 9.16994 16.95C9.26291 17.0437 9.37351 17.1181 9.49537 17.1689C9.61723 17.2197 9.74793 17.2458 9.87994 17.2458C10.012 17.2458 10.1427 17.2197 10.2645 17.1689C10.3864 17.1181 10.497 17.0437 10.5899 16.95L14.8299 12.71C14.9237 12.617 14.9981 12.5064 15.0488 12.3846C15.0996 12.2627 15.1257 12.132 15.1257 12C15.1257 11.868 15.0996 11.7373 15.0488 11.6154C14.9981 11.4936 14.9237 11.383 14.8299 11.29L10.5899 7.00001C10.497 6.90628 10.3864 6.83188 10.2645 6.78111C10.1427 6.73035 10.012 6.70421 9.87994 6.70421C9.74793 6.70421 9.61722 6.73035 9.49537 6.78111C9.37351 6.83188 9.26291 6.90628 9.16994 7.00001Z" fill="black"/>
</svg>
