<svg width="24" height="25" viewBox="0 0 24 25" fill="none" xmlns="http://www.w3.org/2000/svg">
<path d="M19.41 13.7256C19.19 13.7256 18.96 13.6556 18.74 13.6056C18.2948 13.506 17.8571 13.3757 17.43 13.2156C16.9661 13.0468 16.4561 13.0556 15.9983 13.2402C15.5405 13.4248 15.1671 13.7722 14.95 14.2156L14.73 14.6756C13.7588 14.1248 12.8616 13.4527 12.06 12.6756C11.2828 11.874 10.6108 10.9768 10.06 10.0056L10.52 9.79559C10.9634 9.5785 11.3108 9.20512 11.4954 8.74728C11.68 8.28944 11.6888 7.7795 11.52 7.31559C11.3612 6.88462 11.2309 6.44366 11.13 5.99559C11.08 5.77559 11.04 5.54559 11.01 5.32559C10.8886 4.62121 10.5196 3.98333 9.96961 3.52683C9.41961 3.07032 8.72469 2.82519 8.00999 2.83559H4.99999C4.57724 2.83503 4.15914 2.92383 3.77311 3.09617C3.38707 3.26851 3.04182 3.52048 2.75999 3.83559C2.47231 4.15924 2.2581 4.54134 2.13209 4.95562C2.00608 5.36991 1.97125 5.80656 2.02999 6.23559C2.57358 10.3977 4.4752 14.2642 7.43999 17.2356C10.4113 20.2004 14.2779 22.102 18.44 22.6456C18.5698 22.6555 18.7002 22.6555 18.83 22.6456C19.5674 22.6467 20.2794 22.3761 20.83 21.8856C21.1451 21.6038 21.3971 21.2585 21.5694 20.8725C21.7417 20.4864 21.8305 20.0683 21.83 19.6456V16.6456C21.8246 15.9546 21.5808 15.2867 21.1399 14.7547C20.699 14.2227 20.0879 13.8592 19.41 13.7256ZM19.9 19.7256C19.8997 19.8651 19.8701 20.0031 19.8133 20.1305C19.7565 20.258 19.6736 20.3721 19.57 20.4656C19.4604 20.5654 19.33 20.6397 19.1881 20.6829C19.0463 20.7261 18.8967 20.7373 18.75 20.7156C15.0183 20.2282 11.5502 18.5276 8.87999 15.8756C6.20746 13.2031 4.49202 9.72295 3.99999 5.97559C3.97826 5.82892 3.98943 5.67926 4.03266 5.53744C4.0759 5.39562 4.15014 5.26518 4.24999 5.15559C4.34461 5.05074 4.46037 4.96712 4.58964 4.91024C4.71891 4.85336 4.85876 4.82451 4.99999 4.82559H7.99999C8.23115 4.81994 8.45713 4.89457 8.63945 5.03679C8.82178 5.179 8.94919 5.38 8.99999 5.60559C8.99999 5.87559 9.08999 6.15559 9.14999 6.42559C9.26556 6.94945 9.41931 7.46416 9.60999 7.96559L8.20999 8.62559C7.96935 8.73605 7.78235 8.93744 7.68999 9.18559C7.58997 9.42905 7.58997 9.70213 7.68999 9.94559C9.12919 13.0283 11.6072 15.5064 14.69 16.9456C14.9334 17.0456 15.2065 17.0456 15.45 16.9456C15.6981 16.8532 15.8995 16.6662 16.01 16.4256L16.64 15.0256C17.1559 15.2137 17.6837 15.3674 18.22 15.4856C18.48 15.5456 18.76 15.5956 19.03 15.6356C19.2556 15.6864 19.4566 15.8138 19.5988 15.9961C19.741 16.1784 19.8156 16.4044 19.81 16.6356L19.9 19.7256ZM14 2.72559C13.77 2.72559 13.53 2.72559 13.3 2.72559C13.0348 2.74813 12.7894 2.87511 12.6178 3.07858C12.4462 3.28206 12.3624 3.54537 12.385 3.81059C12.4075 4.0758 12.5345 4.3212 12.738 4.4928C12.9415 4.66439 13.2048 4.74813 13.47 4.72559H14C15.5913 4.72559 17.1174 5.35773 18.2426 6.48295C19.3678 7.60816 20 9.13429 20 10.7256C20 10.9056 20 11.0756 20 11.2556C19.9778 11.5194 20.0612 11.7812 20.2317 11.9837C20.4023 12.1861 20.6462 12.3127 20.91 12.3356H20.99C21.2403 12.3366 21.4819 12.2437 21.6671 12.0752C21.8522 11.9067 21.9675 11.6749 21.99 11.4256C21.99 11.1956 21.99 10.9556 21.99 10.7256C21.99 8.60559 21.1485 6.57227 19.6504 5.07226C18.1523 3.57226 16.12 2.72824 14 2.72559ZM16 10.7256C16 10.9908 16.1053 11.2452 16.2929 11.4327C16.4804 11.6202 16.7348 11.7256 17 11.7256C17.2652 11.7256 17.5196 11.6202 17.7071 11.4327C17.8946 11.2452 18 10.9908 18 10.7256C18 9.66472 17.5786 8.6473 16.8284 7.89716C16.0783 7.14701 15.0609 6.72559 14 6.72559C13.7348 6.72559 13.4804 6.83094 13.2929 7.01848C13.1053 7.20602 13 7.46037 13 7.72559C13 7.9908 13.1053 8.24516 13.2929 8.43269C13.4804 8.62023 13.7348 8.72559 14 8.72559C14.5304 8.72559 15.0391 8.9363 15.4142 9.31137C15.7893 9.68645 16 10.1952 16 10.7256Z" fill="#0B0B0B"/>
</svg>
