<svg width="25" height="25" viewBox="0 0 25 25" fill="none" xmlns="http://www.w3.org/2000/svg">
<path d="M9.40002 17.7255C9.20224 17.7255 9.0089 17.7841 8.84445 17.894C8.68001 18.0039 8.55183 18.1601 8.47614 18.3428C8.40046 18.5255 8.38065 18.7266 8.41924 18.9206C8.45782 19.1146 8.55306 19.2927 8.69292 19.4326C8.83277 19.5724 9.01095 19.6677 9.20493 19.7063C9.39891 19.7449 9.59998 19.725 9.78271 19.6494C9.96543 19.5737 10.1216 19.4455 10.2315 19.281C10.3414 19.1166 10.4 18.9233 10.4 18.7255C10.4 18.4603 10.2947 18.2059 10.1071 18.0184C9.9196 17.8308 9.66524 17.7255 9.40002 17.7255ZM6.40002 17.7255C6.20224 17.7255 6.0089 17.7841 5.84445 17.894C5.68001 18.0039 5.55183 18.1601 5.47614 18.3428C5.40046 18.5255 5.38065 18.7266 5.41924 18.9206C5.45782 19.1146 5.55306 19.2927 5.69292 19.4326C5.83277 19.5724 6.01095 19.6677 6.20493 19.7063C6.39892 19.7449 6.59998 19.725 6.78271 19.6494C6.96543 19.5737 7.12161 19.4455 7.23149 19.281C7.34138 19.1166 7.40002 18.9233 7.40002 18.7255C7.40002 18.4603 7.29467 18.2059 7.10713 18.0184C6.91959 17.8308 6.66524 17.7255 6.40002 17.7255ZM12.4 17.7255C12.2022 17.7255 12.0089 17.7841 11.8445 17.894C11.68 18.0039 11.5518 18.1601 11.4761 18.3428C11.4005 18.5255 11.3807 18.7266 11.4192 18.9206C11.4578 19.1146 11.5531 19.2927 11.6929 19.4326C11.8328 19.5724 12.011 19.6677 12.2049 19.7063C12.3989 19.7449 12.6 19.725 12.7827 19.6494C12.9654 19.5737 13.1216 19.4455 13.2315 19.281C13.3414 19.1166 13.4 18.9233 13.4 18.7255C13.4 18.4603 13.2947 18.2059 13.1071 18.0184C12.9196 17.8308 12.6652 17.7255 12.4 17.7255ZM15.5 9.22548C15.5879 9.07394 15.7141 8.94815 15.8659 8.86071C16.0177 8.77327 16.1898 8.72725 16.365 8.72725C16.5402 8.72725 16.7123 8.77327 16.8641 8.86071C17.0159 8.94815 17.1421 9.07394 17.23 9.22548C17.3619 9.45421 17.579 9.62148 17.8338 9.6908C18.0885 9.76012 18.3604 9.72585 18.59 9.59548C18.708 9.53357 18.8124 9.44871 18.8971 9.34589C18.9818 9.24308 19.0451 9.12437 19.0833 8.99675C19.1215 8.86912 19.1338 8.73516 19.1195 8.60271C19.1052 8.47026 19.0646 8.34201 19 8.22548C18.737 7.76852 18.3581 7.38895 17.9017 7.12503C17.4452 6.8611 16.9273 6.72214 16.4 6.72214C15.8728 6.72214 15.3548 6.8611 14.8984 7.12503C14.4419 7.38895 14.0631 7.76852 13.8 8.22548C13.7156 8.44636 13.7122 8.69001 13.7903 8.91318C13.8685 9.13634 14.0233 9.32458 14.2271 9.44448C14.4309 9.56437 14.6706 9.60816 14.9037 9.56806C15.1367 9.52797 15.348 9.40659 15.5 9.22548ZM22.5 6.22548C21.8854 5.16237 21.0018 4.27966 19.9381 3.66598C18.8745 3.0523 17.668 2.72925 16.44 2.72925C15.212 2.72925 14.0056 3.0523 12.9419 3.66598C11.8782 4.27966 10.9947 5.16237 10.38 6.22548C10.3139 6.33961 10.271 6.4657 10.2538 6.59648C10.2367 6.72726 10.2455 6.86014 10.2799 6.98748C10.3143 7.11482 10.3735 7.2341 10.4542 7.33845C10.5349 7.44279 10.6354 7.53015 10.75 7.59548C10.8876 7.67383 11.0418 7.71838 11.2 7.72548C11.3762 7.72618 11.5495 7.6803 11.7023 7.5925C11.8551 7.5047 11.9819 7.37808 12.07 7.22548C12.5089 6.46544 13.1401 5.83431 13.9001 5.39551C14.6602 4.95671 15.5224 4.7257 16.4 4.7257C17.2777 4.7257 18.1398 4.95671 18.8999 5.39551C19.66 5.83431 20.2912 6.46544 20.73 7.22548C20.7954 7.34007 20.8827 7.4406 20.9871 7.52128C21.0914 7.60197 21.2107 7.66121 21.338 7.6956C21.4654 7.72999 21.5982 7.73885 21.729 7.72167C21.8598 7.70448 21.9859 7.6616 22.1 7.59548C22.2171 7.5327 22.3206 7.44721 22.4042 7.34401C22.4879 7.2408 22.5502 7.12195 22.5875 6.9944C22.6247 6.86686 22.6362 6.73316 22.6211 6.60114C22.6061 6.46912 22.565 6.34141 22.5 6.22548ZM18.4 14.7255H17.4V11.7255C17.4 11.4603 17.2947 11.2059 17.1071 11.0184C16.9196 10.8308 16.6652 10.7255 16.4 10.7255C16.1348 10.7255 15.8805 10.8308 15.6929 11.0184C15.5054 11.2059 15.4 11.4603 15.4 11.7255V14.7255H5.40002C4.60437 14.7255 3.84131 15.0415 3.2787 15.6042C2.71609 16.1668 2.40002 16.9298 2.40002 17.7255V19.7255C2.40002 20.5211 2.71609 21.2842 3.2787 21.8468C3.84131 22.4094 4.60437 22.7255 5.40002 22.7255H18.4C19.1957 22.7255 19.9587 22.4094 20.5213 21.8468C21.084 21.2842 21.4 20.5211 21.4 19.7255V17.7255C21.4 16.9298 21.084 16.1668 20.5213 15.6042C19.9587 15.0415 19.1957 14.7255 18.4 14.7255ZM19.4 19.7255C19.4 19.9907 19.2947 20.2451 19.1071 20.4326C18.9196 20.6201 18.6652 20.7255 18.4 20.7255H5.40002C5.13481 20.7255 4.88045 20.6201 4.69292 20.4326C4.50538 20.2451 4.40002 19.9907 4.40002 19.7255V17.7255C4.40002 17.4603 4.50538 17.2059 4.69292 17.0184C4.88045 16.8308 5.13481 16.7255 5.40002 16.7255H18.4C18.6652 16.7255 18.9196 16.8308 19.1071 17.0184C19.2947 17.2059 19.4 17.4603 19.4 17.7255V19.7255Z" fill="white"/>
</svg>
